<svg width="1160" height="359" viewBox="0 0 1160 359" fill="none" xmlns="http://www.w3.org/2000/svg">
<path d="M151.01 208.013V309.292L126.599 358.244H0L3.11629 0.129853H119.328L146.596 48.1727V135.429L129.586 167.89L151.01 208.013ZM94.0082 289.296V205.026L69.727 172.305L90.5023 144.258V71.0255L83.7504 56.8724H57.7813V301.761H86.0876L94.0082 289.296Z" fill="#6D0303"/>
<path d="M184.251 0H239.695V75.0507L254.887 125.69H264.106L278.129 77.2581V0H332.145V79.2058L287.348 212.687L288.127 355.517H232.683L231.904 213.466C231.904 213.466 184.9 80.6341 184.121 77.6476C183.472 74.791 184.251 0 184.251 0Z" fill="#6D0303"/>
<path d="M350.193 0H389.017V208.921H411.221L417.323 249.303L350.193 247.096V0Z" fill="#6D0303"/>
<path d="M435.112 0H511.721L500.035 39.0835L473.417 41.2909V100.63H504.45L499.386 137.247H473.417C473.417 137.247 469.521 209.441 473.417 209.441C477.312 209.441 508.345 209.441 508.345 209.441L511.721 249.433H435.112V0Z" fill="#6D0303"/>
<path d="M630.27 31.8122V216.063L612.611 249.303H549.896L528.731 213.726V32.3316L549.896 3.50584H609.755L630.27 31.8122ZM591.576 202.169V46.8742L585.344 39.0835H571.58L567.165 46.8742V202.169L569.892 211.129H588.33L591.576 202.169Z" fill="#6D0303"/>
<path d="M654.292 0H688.051L714.67 101.799V0H752.455V246.577H721.941L689.22 125.041V246.577H654.292V3.50584" fill="#6D0303"/>
<path d="M778.034 0H851.527L840.1 39.0835H817.507V101.409H845.294L838.283 136.857H817.897V246.577H778.034V0Z" fill="#6D0303"/>
<path d="M870.095 0H909.698V211.129H931.901L937.744 246.577H870.095V0Z" fill="#6D0303"/>
<path d="M956.961 0H1030.58L1021.36 39.0835H993.838V102.188H1027.99L1020.33 136.597H996.175V211.129H1027.34L1033.57 249.303H956.961V0Z" fill="#6D0303"/>
<path d="M1054.74 3.50584H1093.17L1105.37 57.3917L1119.01 0H1154.59L1124.98 120.237L1159.78 249.303H1119.01L1101.22 176.85L1082.78 249.303H1048.76L1083.95 115.822L1054.74 3.50584Z" fill="#6D0303"/>
<path d="M419.661 270.988V285.011H408.624V307.215H417.323V319.03H409.403L408.624 344.74H419.661V356.686H395.639V270.988H419.661Z" fill="white"/>
<path d="M447.058 270.988H435.112V355.517H447.058V270.988Z" fill="white"/>
<path d="M457.056 342.532H435.112V356.556H457.056V342.532Z" fill="white"/>
<path d="M503.151 280.856V345L497.049 356.556H475.235L467.833 344.22V280.986L475.235 270.858H496.01L503.151 280.856ZM489.647 340.195V286.05L487.44 283.323H482.636L481.078 286.05V340.195L481.987 343.182H488.349L489.647 340.195Z" fill="white"/>
<path d="M518.213 271.377H529.77L538.989 306.435V271.377H551.973V356.296H541.456L530.159 314.486V356.296H518.213V272.546" fill="white"/>
<path d="M381.226 320.199V344.35L375.383 356.036H345.129L345.779 270.468H373.566L380.058 281.895V302.8L376.033 310.59L381.226 320.199ZM367.593 339.676V319.55L361.75 311.759L366.684 305.007V287.478L365.126 284.102H358.893V342.662H365.645L367.593 339.676Z" fill="white"/>
<path d="M593.913 270.468C593.264 274.753 592.615 279.038 591.836 283.193L578.721 283.323V345.519H586.253L585.473 317.083H582.747L584.565 306.176H596.77V356.296H574.047L565.867 348.116V281.895C565.867 281.895 572.489 270.468 573.138 270.468C573.787 270.468 593.913 270.468 593.913 270.468Z" fill="white"/>
<path d="M637.412 271.377H618.714L611.313 283.323L612.092 303.968L627.673 321.368L628.193 345.389H611.313V356.686L630.4 357.335L639.1 346.428V315.914L622.609 298.904L622.999 284.362L635.204 283.323L637.412 271.377Z" fill="white"/>
<path d="M684.156 282.284L687.662 271.377H712.852L710.644 283.193H703.373V356.296H691.427V284.102L684.156 282.284Z" fill="white"/>
<path d="M758.038 281.375V345.519L751.806 357.075H729.991L722.59 344.74V281.505L729.991 271.377H750.897L758.038 281.375ZM744.404 340.844V286.569L742.327 283.842H737.523L735.964 286.569V340.715L736.873 343.701H743.236L744.404 340.844Z" fill="white"/>
<path d="M903.984 270.468H917.618V289.036L921.384 301.501H923.721L927.227 289.555V270.468H940.601V289.945L929.564 322.926L929.694 358.114H916.06L915.93 323.056C915.93 323.056 904.374 290.335 904.114 289.555C903.855 288.906 903.984 270.468 903.984 270.468Z" fill="white"/>
<path d="M1033.57 280.336V344.48L1027.34 356.036H1005.52L998.122 343.701V280.466L1005.52 270.468H1026.43L1033.57 280.336ZM1020.07 339.676V285.53L1017.99 282.803H1013.18L1011.63 285.53V339.676L1012.54 342.792H1018.9L1020.07 339.676Z" fill="white"/>
<path d="M1048.76 271.897H1060.45L1069.54 306.955V271.897H1082.52V356.815H1072.13L1060.84 315.005V356.815H1048.76V273.065" fill="white"/>
<path d="M1112 270.468H1097.58V357.335H1112V270.468Z" fill="white"/>
<path d="M839.321 308.253L840.88 356.296L827.895 357.205V335.131H817.767V357.335H805.951V308.383L814.651 271.377H829.323L839.321 308.253ZM827.505 322.017L821.662 291.763L816.469 320.589V321.887H827.505V322.017Z" fill="white"/>
<path d="M856.461 356.296V271.507H884.767L892.039 278.778V305.137L885.936 312.798L892.039 320.718V356.296H880.093L876.717 352.271L876.457 322.017L872.042 314.486L877.626 306.955V283.972H867.368V356.036L856.461 356.296Z" fill="white"/>
<path d="M981.892 271.507C981.242 275.792 980.593 280.077 979.814 284.232L966.7 284.362V346.558H974.231L973.452 318.121H970.725L972.543 307.215H984.748V357.335H962.025L953.845 349.155V282.933C953.845 282.933 960.467 271.507 961.116 271.507C961.636 271.507 981.892 271.507 981.892 271.507Z" fill="white"/>
<path d="M1157.96 308.253L1159.65 356.296L1146.67 357.205V335.131H1136.54V357.335H1124.59V308.383L1133.55 271.637H1148.22L1157.96 308.253ZM1146.41 322.147L1140.56 291.763L1135.37 320.589V322.147H1146.41Z" fill="white"/>
</svg>
