<svg width="200" height="241" viewBox="0 0 200 241" fill="none" xmlns="http://www.w3.org/2000/svg">
<path d="M170.598 73.1161C174.172 80.2362 175.114 87.9103 175.945 95.7784C177.939 86.6913 176.831 78.0198 173.119 69.5699C173.922 70.2626 174.726 70.9552 175.529 71.6201C175.64 71.5093 175.751 71.4261 175.889 71.3153C174.061 68.3232 172.26 65.3311 170.431 62.3391C174.199 65.4143 177.718 68.628 181.264 71.7863C184.838 75 188.412 78.2137 192.567 80.7349C192.18 80.07 191.681 79.5159 191.154 78.9895C185.641 73.5594 180.017 68.2401 174.615 62.6992C168.437 56.3826 162.342 49.9274 155.166 44.6082C146.467 38.1807 137.491 32.0857 128.653 25.8522C127.545 25.0765 126.381 24.3561 125.245 23.6081C125.245 23.9406 125.328 24.1068 125.467 24.2453C129.096 28.0408 132.781 31.781 136.355 35.6319C141.48 41.1174 146.412 46.7414 149.93 53.3628C155.997 64.8048 152.895 76.9393 141.896 83.4776C132.421 89.1016 121.949 91.4565 110.756 90.6254C109.398 90.5146 108.069 90.3206 106.24 90.099C106.573 91.8167 106.85 93.3681 107.154 94.8919C107.376 95.1689 107.708 95.5014 107.792 95.5845C108.484 96.2217 109.204 96.8312 109.98 97.3853C111.864 98.7705 113.72 100.183 115.576 101.596C117.987 103.092 120.314 104.533 122.503 105.863C127.628 104.505 132.504 103.231 137.352 101.929C137.38 102.012 137.435 102.095 137.463 102.15C136.521 103.148 135.551 104.145 134.609 105.143C134.693 105.226 134.776 105.281 134.831 105.364C137.352 103.037 139.873 100.738 142.394 98.4104C142.478 98.4658 142.533 98.5212 142.616 98.5489L142.117 100.71C146.799 95.5014 150.927 90.4592 153.587 84.2811C154.64 87.9658 155.887 91.6504 156.274 95.3906C156.662 99.1861 156.164 103.037 156.025 106.971C158.463 101.347 162.065 96.1663 161.427 89.628C161.621 91.3457 161.815 93.0911 162.037 94.8642C162.674 93.8945 163.284 92.9526 164.087 91.7059C165.362 96.942 165.666 101.846 165.472 106.805C165.278 111.736 164.946 116.668 164.697 121.405C167.052 116.058 168.381 110.212 168.686 104.201C169.019 98.1887 169.046 92.1768 169.185 86.3035C171.9 90.7362 173.728 95.6676 175.086 100.848C174.947 91.4288 172.315 82.314 170.598 73.1161ZM155.97 49.7058C161.04 57.5185 164.17 65.9129 164.835 75.1108C163.173 66.2177 159.571 57.9617 155.97 49.7058ZM162.757 91.6227C162.009 85.5278 161.289 79.4328 160.541 73.3101C163.007 79.2111 163.727 85.3061 163.117 91.5673C163.007 91.595 162.896 91.595 162.757 91.6227Z" fill="#DADADA"/>
<path d="M90.3654 40.868C90.0329 40.6464 89.7836 40.4802 89.3126 40.1477C89.8667 39.649 90.3376 39.2058 90.864 38.7071C87.6503 39.5105 84.8522 40.7295 83.3284 43.9155C81.8878 46.963 80.087 49.8166 77.7321 52.2823C77.2611 52.781 76.7347 53.252 76.0144 53.9446C75.959 53.2243 76.0144 52.781 75.9036 52.3931C75.8205 52.1161 75.5988 51.8667 75.4049 51.5897C75.2941 51.6174 75.1833 51.6451 75.0725 51.6728C75.4603 50.62 75.8205 49.5673 76.2915 48.2097C75.1002 48.6253 74.1305 48.9301 73.1886 49.3179C72.9669 49.401 72.8284 49.7612 72.7176 50.0105C71.9141 51.8667 71.1938 53.7784 70.2796 55.5792C68.9221 58.2388 67.7585 60.9261 67.5091 63.9459C67.4537 64.6385 67.426 65.3311 67.3983 66.0515C67.3429 66.0792 67.2598 66.1623 67.2321 66.1346C64.8772 64.8602 62.6331 63.4749 61.0817 61.2032C60.0843 59.7348 60.2782 58.2388 60.9154 56.6596C61.9959 54.1108 62.9933 51.5343 64.0183 48.9578C64.2123 48.4868 64.24 47.9327 64.4062 47.4617C64.5447 47.1016 64.7941 46.5198 64.988 46.5198C65.4036 46.5198 65.8191 46.8245 66.207 47.0462C66.3455 47.1293 66.4286 47.3509 66.6503 47.6834C67.0104 47.1016 67.2598 46.7137 67.4814 46.3258C67.9247 45.4947 68.5342 44.8852 69.4761 44.525C70.9168 43.9432 70.9168 42.3641 71.5263 41.1728C69.8086 41.6992 68.174 42.3641 67.3429 44.0818C66.8442 45.1345 66.0962 45.744 64.9326 45.938C63.6305 46.1596 62.6331 45.5501 62.6885 44.2203C62.7716 42.6134 62.9933 40.9789 63.3257 39.3997C64.1569 35.4103 65.9023 31.781 68.0078 28.3456C68.2017 28.0408 68.4234 27.7915 68.8389 27.5976C67.7585 31.2269 66.678 34.8562 65.5975 38.4855C65.7083 38.5409 65.7914 38.5963 65.9023 38.624C68.2571 32.6121 73.2717 28.7335 77.0395 23.8575C77.1503 23.9406 77.2334 23.996 77.3442 24.0791C76.4577 25.686 75.5711 27.2651 74.6846 28.872C74.7677 28.9551 74.8508 29.0382 74.9339 29.1213C78.2585 27.182 81.112 24.5778 84.2427 22.2783C83.3561 23.5527 82.4696 24.7994 81.4168 26.2955C85.5448 25.1596 88.2321 22.4722 90.9472 19.8126C91.0303 19.8957 91.1134 19.9788 91.1965 20.0619C89.9498 21.9181 88.6754 23.7743 87.2347 25.9076C93.9669 24.9656 100.367 23.996 105.908 20.0896C103.747 22.777 100.893 24.5224 97.9287 26.4063C104.772 27.2651 111.421 28.0963 118.292 28.9828C116.657 30.091 115.022 30.4788 113.332 30.4234C109.343 30.3126 105.354 30.0079 101.364 29.9248C98.6767 29.8693 95.9617 29.897 93.2743 30.091C91.1411 30.2295 89.2849 31.1715 87.8442 32.806C86.7084 34.0804 85.6279 35.3825 84.4366 36.7678C85.4339 37.0725 86.1543 37.1002 86.7638 36.3799C87.4564 35.5765 88.2044 34.8008 88.9524 34.025C90.1714 32.7783 91.5844 32.2796 93.3574 32.4736C97.4577 32.8891 101.281 34.2467 104.993 35.8812C110.811 38.4577 116.38 41.5052 121.367 45.5501C121.727 45.8549 122.087 46.1873 122.42 46.5198C122.53 46.6306 122.586 46.7414 122.586 47.0184C116.241 43.8324 109.952 40.5356 103.026 38.6794C111.67 47.2678 115.881 57.6293 115.826 69.7085C114.413 66.2454 113.138 62.7269 111.559 59.3747C109.925 55.9393 107.431 53.1134 104.384 50.6477C104.883 52.5594 105.464 54.3602 105.769 56.1887C106.489 60.3997 105.908 64.5831 104.966 68.7111C103.885 73.504 103.747 78.2138 105.741 82.8404C107.043 85.8325 108.927 88.3813 111.282 90.6531C114.745 93.9499 117.765 97.6069 120.619 101.43C123.306 105.032 125.384 108.883 126.658 113.177C127.988 117.665 128.154 122.264 127.711 126.918C126.991 134.371 124.747 141.38 121.007 147.863C120.813 148.195 120.591 148.528 120.175 148.749C120.785 146.09 121.422 143.403 122.032 140.743C119.594 144.926 116.408 148.5 113.194 152.046C102.86 163.461 90.2822 170.913 75.0447 173.656C72.9115 174.044 70.7228 174.044 68.5342 174.155C68.0909 174.182 67.6199 173.85 67.1767 173.684C67.5922 173.407 67.9801 172.963 68.4234 172.852C71.0276 172.271 73.6595 171.855 76.2361 171.218C84.7968 169.085 92.1939 164.874 98.372 158.585C106.074 150.717 112.141 141.796 115.826 131.351C118.07 125.007 118.624 118.468 116.989 111.93C114.912 103.702 109.759 97.8563 102.251 94.033C98.6767 92.2322 94.8535 91.2626 90.9194 90.7639C90.587 90.7362 90.2545 90.7362 90.1437 90.7362C92.3878 92.2323 94.8258 93.6729 97.0421 95.4183C101.946 99.2692 106.157 103.73 108.789 109.52C109.98 112.152 109.925 112.29 107.099 112.872C101.974 113.953 96.8205 115.033 91.6952 116.114C90.6701 116.335 89.645 116.695 88.5369 117.028C88.426 115.559 88.2875 115.199 88.1767 115.199C88.0105 115.199 87.9551 115.947 87.3179 116.862C87.1239 117.139 86.6807 117.748 86.3482 117.665C86.2651 117.637 86.2374 117.61 85.6279 116.834C85.5725 116.751 85.4617 116.64 85.3508 116.529C85.3508 116.529 85.1569 116.335 84.8799 116.197C84.5474 116.03 83.7163 115.892 82.6635 116.114C83.0237 114.811 83.6332 114.147 84.2427 113.786C85.4062 113.094 86.3759 113.703 87.8442 113.121C88.897 112.678 89.3126 111.986 90.116 111.099C91.058 110.046 92.554 108.661 95.0197 107.387C91.8614 105.614 88.8139 103.924 85.7664 102.206C87.401 104.034 88.3983 106.195 88.62 108.855C87.5395 109.298 86.4313 109.825 85.24 110.212C83.6055 110.767 81.9155 111.238 80.2532 111.736C80.087 111.792 79.6991 111.93 79.339 111.764C79.0065 111.598 78.8403 111.238 78.7849 111.044C78.7017 110.379 78.6186 110.212 78.5355 110.212C78.397 110.212 78.3416 110.656 78.0091 111.154C77.8706 111.348 77.4273 111.986 76.9564 111.986C76.3469 111.958 76.3192 110.85 75.488 110.379C75.0725 110.129 74.3244 110.019 72.9392 110.683C73.0223 109.575 73.8812 108.55 74.9893 108.412C75.6543 108.329 76.3469 108.273 76.9564 108.467C78.674 108.938 80.2532 108.523 81.8047 107.885C82.9682 107.414 84.1318 106.971 85.5171 106.417C85.0184 105.974 84.6305 105.641 84.215 105.309C80.835 102.538 78.5632 99.0753 77.7875 94.7534C77.1226 91.1241 77.8429 87.6056 79.1173 84.2256C80.7796 79.8483 83.1899 75.8589 85.8495 72.0079C88.1213 68.7111 90.4208 65.442 91.7229 61.6187C92.1939 60.2612 92.3878 58.8206 92.6094 57.4076C92.8034 56.0224 92.3324 54.748 91.335 53.7784C89.2018 51.7005 86.9854 49.6781 84.7967 47.6279C84.5751 47.434 84.215 47.2678 84.1595 47.0462C84.1041 46.7691 84.2427 46.3258 84.4643 46.1596C84.6859 45.9934 85.1015 46.0488 85.434 46.0765C86.459 46.1873 86.8192 45.8549 86.7915 44.719C86.7638 43.029 88.0936 42.1979 89.368 41.3944C89.7004 41.2005 89.9775 41.062 90.3654 40.868ZM63.2149 60.3997C63.9075 59.4301 64.4893 58.6267 65.2374 57.5739C65.4867 58.5435 65.6252 59.153 65.7637 59.7902C66.3178 56.2164 68.2571 53.3074 70.1411 50.1491C69.8086 50.2876 69.6978 50.3153 69.6147 50.3707C67.5368 52.7533 65.459 55.1359 63.4366 57.5739C62.9102 58.2942 62.7162 59.2362 63.2149 60.3997ZM89.2572 45.5778C90.6701 48.1543 92.083 50.7032 93.6345 53.5013C93.4406 50.5369 91.5012 47.1016 89.2572 45.5778ZM87.207 29.6477C84.492 31.2546 82.5527 33.7757 80.7242 36.4076C80.8073 36.4907 80.9181 36.5738 81.0012 36.6847C83.1068 34.3021 85.2123 31.9195 87.207 29.6477Z" fill="#DADADA"/>
<path d="M44.5975 131.49C44.9576 131.545 45.3455 131.573 45.7057 131.683C51.9669 133.346 58.1727 135.119 64.6278 135.839C72.0804 136.698 79.3944 136.282 86.3482 133.18C90.5316 131.323 93.7453 128.304 96.3495 124.647C97.9287 122.43 99.2585 120.02 100.561 117.61C101.253 116.363 102.057 115.643 103.525 115.504C105.076 115.366 106.6 115.033 108.124 114.784C109.288 114.617 109.565 114.895 109.26 116.058C108.318 119.881 106.656 123.344 104.245 126.475C100.09 131.85 94.9366 135.922 88.5646 138.388C84.1595 140.106 79.5883 140.687 74.9616 140.41C65.1542 139.829 55.8178 137.224 46.8969 133.18C46.0381 132.792 45.2624 132.293 44.4312 131.85C44.5144 131.711 44.5698 131.6 44.5975 131.49Z" fill="#DADADA"/>
<path d="M82.4419 120.962C83.1622 121.987 81.306 125.395 81.9986 128.276C82.1371 128.83 82.4419 129.716 83.3284 130.742C81.7215 129.8 80.6411 128.165 80.1978 126.42C79.6714 124.342 80.3086 122.43 80.9458 121.516C81.112 121.267 81.6107 120.602 82.054 120.685C82.2756 120.712 82.3864 120.879 82.4419 120.962Z" fill="#DADADA"/>
<path d="M75.1279 111.21C75.2941 111.653 75.1279 112.096 74.3244 113.537C73.7703 114.534 73.6318 114.728 73.4102 114.728C73.2163 114.728 73.0223 114.507 72.6345 114.036C72.1358 113.454 71.8587 113.149 71.8864 112.9C71.9141 112.567 72.1635 112.318 72.6899 111.902C73.0223 111.625 74.4076 110.49 74.9616 110.905C75.0448 110.988 75.0725 111.071 75.1279 111.21Z" fill="#DADADA"/>
<path d="M72.302 114.34C72.8561 115.476 70.5012 118.552 70.7505 121.516C70.806 122.098 70.9722 123.012 71.6925 124.148C70.2519 122.984 69.4207 121.183 69.2822 119.41C69.0883 117.277 70.0025 115.476 70.7505 114.673C70.9722 114.451 71.5263 113.869 71.9695 114.008C72.1635 114.091 72.2743 114.285 72.302 114.34Z" fill="#DADADA"/>
<path d="M84.769 117.222C84.9907 117.637 84.9076 118.108 84.3535 119.66C83.9656 120.74 83.8271 120.962 83.6331 120.99C83.4392 121.017 83.2176 120.823 82.7466 120.435C82.1648 119.937 81.8601 119.687 81.8324 119.41C81.8047 119.078 82.0263 118.801 82.4696 118.302C82.7466 117.997 83.9379 116.64 84.5474 116.972C84.6582 117 84.7136 117.111 84.769 117.222Z" fill="#DADADA"/>
<path d="M71.5817 111.154C71.6094 111.487 71.4155 111.792 70.5566 112.65C69.9748 113.26 69.8363 113.371 69.6701 113.315C69.5316 113.288 69.4484 113.094 69.2545 112.678C69.0052 112.18 68.8666 111.902 68.9498 111.709C69.0329 111.459 69.2545 111.348 69.7255 111.154C70.0025 111.016 71.2215 110.49 71.5263 110.877C71.554 110.961 71.5817 111.044 71.5817 111.154Z" fill="#DADADA"/>
<path d="M68.9775 112.817C69.1714 113.731 66.8996 115.449 66.4841 117.582C66.4009 117.997 66.3455 118.69 66.6503 119.632C65.8469 118.524 65.6252 117.111 65.8469 115.809C66.1239 114.257 67.1213 113.149 67.8139 112.734C68.0078 112.623 68.5342 112.318 68.8112 112.512C68.9221 112.623 68.9498 112.761 68.9775 112.817Z" fill="#DADADA"/>
<path d="M81.3891 117.748C81.4722 118.081 81.306 118.385 80.6134 119.383C80.1147 120.075 80.0039 120.214 79.8376 120.186C79.6991 120.186 79.5606 119.992 79.3112 119.632C78.9788 119.161 78.8126 118.939 78.868 118.745C78.9234 118.496 79.1173 118.358 79.5329 118.081C79.7822 117.914 80.8904 117.194 81.2783 117.554C81.3337 117.582 81.3614 117.665 81.3891 117.748Z" fill="#DADADA"/>
<path d="M79.0619 119.798C79.3944 120.657 77.3997 122.707 77.3442 124.896C77.3442 125.311 77.3719 126.004 77.8152 126.891C76.8456 125.921 76.4023 124.536 76.43 123.234C76.4577 121.654 77.2888 120.435 77.8983 119.909C78.0646 119.771 78.5355 119.383 78.8403 119.521C78.9788 119.604 79.0342 119.743 79.0619 119.798Z" fill="#DADADA"/>
<path d="M86.1266 120.186C86.2928 120.38 86.2928 120.629 86.1266 121.516C86.0157 122.125 85.9603 122.264 85.8495 122.292C85.7664 122.319 85.6002 122.236 85.3231 122.07C84.963 121.848 84.769 121.765 84.7413 121.599C84.6859 121.433 84.7967 121.267 84.9907 120.934C85.1015 120.74 85.6279 119.909 85.988 120.02C86.0435 120.103 86.0989 120.131 86.1266 120.186Z" fill="#DADADA"/>
<path d="M85.24 122.292C85.7387 122.763 85.0461 124.785 85.6833 126.253C85.8218 126.53 86.0712 127.001 86.6253 127.445C85.6833 127.085 84.9353 126.309 84.5474 125.422C84.0764 124.342 84.2427 123.261 84.492 122.735C84.5751 122.596 84.7413 122.181 85.0184 122.181C85.1015 122.181 85.1846 122.264 85.24 122.292Z" fill="#DADADA"/>
<path d="M75.7928 114.922C75.9036 115.172 75.8205 115.393 75.4049 116.197C75.1279 116.751 75.0448 116.862 74.9339 116.862C74.8231 116.862 74.7123 116.751 74.4907 116.501C74.2136 116.197 74.0474 116.03 74.0474 115.892C74.0474 115.698 74.1859 115.587 74.463 115.338C74.6292 115.172 75.3495 114.534 75.682 114.756C75.7651 114.784 75.7651 114.839 75.7928 114.922Z" fill="#DADADA"/>
<path d="M74.3521 116.695C74.6846 117.305 73.4656 119.023 73.6595 120.629C73.6872 120.934 73.8258 121.433 74.2413 122.042C73.4379 121.433 72.9392 120.491 72.8284 119.521C72.6622 118.358 73.1331 117.36 73.521 116.917C73.6318 116.806 73.9366 116.446 74.1582 116.529C74.269 116.557 74.3244 116.64 74.3521 116.695Z" fill="#DADADA"/>
<path d="M34.707 222.97V222.748H35.0948C35.3719 222.748 35.5935 222.637 35.7874 222.388C35.9814 222.139 36.1753 221.779 36.3969 221.308L42.9906 206.126H44.9022V206.403C44.9022 206.957 44.9576 207.428 45.0962 207.76L50.6371 221.308C50.8864 221.945 51.0803 222.305 51.1635 222.416C51.3574 222.637 51.6344 222.748 52.0223 222.748H52.2162V222.97H47.7281V222.748H49.5289V222.693C49.3073 222.61 49.0579 222.25 48.8086 221.585L47.5065 218.399H38.1423L36.8679 221.308C36.7848 221.502 36.7294 221.695 36.7294 221.834C36.7294 222.111 36.8402 222.333 37.0342 222.499C37.2281 222.665 37.5051 222.748 37.8653 222.748H39.0012V222.97H34.707ZM38.2809 217.983H47.2017L43.2123 208.203C43.0737 207.899 43.0183 207.594 43.0183 207.261H42.8244C42.8244 207.428 42.7413 207.732 42.5474 208.203L38.2809 217.983Z" fill="#DADADA"/>
<path d="M54.9867 222.97V222.748H55.8178C56.3719 222.748 56.7321 222.693 56.8429 222.554C56.9814 222.416 57.0368 222.083 57.0368 221.502V207.566C57.0368 207.012 56.9814 206.652 56.8429 206.513C56.7044 206.375 56.3719 206.319 55.8178 206.319H54.9867V206.098H61.1094C62.9933 206.098 64.4893 206.569 65.6252 207.538C66.7611 208.508 67.3429 209.755 67.3429 211.306C67.3429 212.719 66.8719 213.883 65.93 214.797C64.988 215.711 63.7967 216.238 62.3561 216.376L61.8851 216.404V216.542C62.4115 216.598 62.9102 216.764 63.3812 217.069C63.8521 217.374 64.2123 217.734 64.4893 218.149L65.6806 220.005C65.736 220.089 65.8192 220.227 65.9577 220.421C66.0962 220.615 66.1793 220.781 66.2624 220.892C66.3456 221.003 66.4287 221.141 66.5672 221.335C66.7057 221.529 66.8165 221.668 66.8996 221.751C66.9827 221.834 67.1213 221.973 67.2321 222.083C67.3706 222.194 67.4814 222.277 67.6199 222.333C67.7585 222.388 67.8693 222.416 67.9801 222.416C68.2017 222.416 68.4234 222.333 68.645 222.139L69.1714 221.695L69.3099 221.862L68.7835 222.305C68.0909 222.914 67.4537 223.192 66.8442 223.192C66.5672 223.192 66.2901 223.136 66.0131 222.998C65.7637 222.859 65.4867 222.693 65.2651 222.416C65.0157 222.166 64.8218 221.917 64.6556 221.695C64.4893 221.474 64.2954 221.197 64.0738 220.837L62.4392 218.316C61.9959 217.651 61.6358 217.18 61.331 216.93C61.0263 216.653 60.6107 216.542 60.1397 216.542H59.8627V216.127H60.9432C62.3561 216.127 63.4643 215.711 64.2123 214.908C64.9603 214.077 65.3205 212.885 65.3205 211.334C65.3205 209.783 64.9603 208.591 64.2123 207.788C63.4643 206.984 62.3838 206.569 60.9432 206.569H58.5052V206.597C58.7822 206.874 58.893 207.261 58.893 207.816V221.502C58.893 222.056 58.9484 222.388 59.087 222.527C59.2255 222.665 59.5856 222.721 60.1397 222.721H61.4972V222.942H54.9867V222.97Z" fill="#DADADA"/>
<path d="M71.6925 222.97V222.748H72.5237C73.0777 222.748 73.4379 222.693 73.5764 222.554C73.7149 222.416 73.7704 222.083 73.7704 221.529V207.538C73.7704 206.984 73.7149 206.652 73.5764 206.513C73.4379 206.375 73.1054 206.319 72.5237 206.319H71.6925V206.098H77.6767V206.375H76.8456C76.2915 206.375 75.9313 206.43 75.7928 206.569C75.6543 206.707 75.5989 207.04 75.5989 207.594V221.529C75.5989 222.083 75.6543 222.416 75.7928 222.554C75.9313 222.693 76.2915 222.748 76.8456 222.748H77.6767V222.97H71.6925Z" fill="#DADADA"/>
<path d="M81.0844 214.548C81.0844 212.858 81.4168 211.389 82.0817 210.087C82.7466 208.813 83.6886 207.816 84.8799 207.095C86.0989 206.403 87.4841 206.042 89.0633 206.042C90.7532 206.042 92.1662 206.541 93.3298 207.511C93.4406 207.594 93.5237 207.76 93.5791 207.954L93.6899 207.926C93.6345 207.705 93.6068 207.538 93.6068 207.4L93.496 205.128H93.7453L94.1055 212.276L93.7176 212.304L93.6068 210.78C93.5237 209.478 93.025 208.425 92.1108 207.649C91.1965 206.874 90.116 206.486 88.8693 206.486C87.0131 206.486 85.6002 207.151 84.6028 208.453C83.6332 209.755 83.1345 211.666 83.1345 214.188C83.1345 216.958 83.6609 219.091 84.7136 220.532C85.7664 222 87.2902 222.721 89.3126 222.721C90.116 222.693 90.8641 222.527 91.5844 222.222C92.3047 221.917 92.8865 221.446 93.3298 220.809V217.761C93.3298 217.124 93.1358 216.598 92.7203 216.21C92.3324 215.822 91.806 215.628 91.1411 215.628H88.4261V215.213H97.0976V215.628H95.1305V223.912H94.9089V222.277C94.8812 221.973 94.7981 221.695 94.6319 221.474C94.4656 221.252 94.244 221.114 93.9947 221.114C93.773 221.114 93.5514 221.225 93.3298 221.446C92.8034 222 92.1939 222.416 91.4736 222.693C90.7532 222.998 89.9775 223.136 89.1741 223.136C86.7361 223.136 84.7691 222.36 83.3007 220.781C81.8324 219.202 81.0844 217.124 81.0844 214.548Z" fill="#DADADA"/>
<path d="M100.145 214.52C100.145 211.943 100.949 209.866 102.528 208.286C104.135 206.707 106.212 205.932 108.817 205.932C111.421 205.932 113.499 206.707 115.106 208.286C116.685 209.866 117.488 211.943 117.488 214.52C117.488 216.238 117.128 217.734 116.408 219.036C115.687 220.338 114.662 221.363 113.36 222.056C112.058 222.748 110.534 223.136 108.817 223.136C106.212 223.136 104.107 222.333 102.528 220.754C100.949 219.202 100.145 217.097 100.145 214.52ZM102.195 214.104C102.195 216.903 102.777 219.036 103.913 220.532C105.049 222 106.739 222.748 108.9 222.748C111.033 222.748 112.64 222.083 113.776 220.754C114.912 219.424 115.466 217.512 115.466 214.991C115.466 212.193 114.884 210.06 113.748 208.564C112.612 207.095 110.95 206.347 108.761 206.347C106.628 206.347 104.993 207.012 103.885 208.342C102.749 209.644 102.195 211.583 102.195 214.104Z" fill="#DADADA"/>
<path d="M120.923 222.97V222.748H121.533C122.087 222.748 122.447 222.693 122.586 222.554C122.724 222.416 122.807 222.083 122.807 221.502V207.566C122.807 207.012 122.724 206.652 122.586 206.541C122.447 206.403 122.087 206.347 121.533 206.347H120.923V206.126H124.497L130.925 217.928C131.202 218.399 131.34 218.703 131.34 218.786H131.479C131.451 218.509 131.451 218.205 131.451 217.789V207.788C131.451 207.234 131.34 206.846 131.119 206.624C130.897 206.403 130.509 206.292 129.955 206.292H128.902V206.07H133.723V206.292H133.335C132.781 206.292 132.393 206.403 132.171 206.624C131.95 206.846 131.839 207.234 131.839 207.788V223.385H131.645C131.645 223.191 131.423 222.721 130.98 221.945L123.749 208.757C123.694 208.647 123.639 208.508 123.528 208.37C123.417 208.231 123.361 208.093 123.334 208.009C123.278 207.926 123.278 207.871 123.278 207.843H123.14C123.168 208.093 123.168 208.425 123.168 208.841V221.502C123.168 222.056 123.223 222.416 123.361 222.554C123.5 222.693 123.86 222.748 124.414 222.748H125.024V222.97H120.923Z" fill="#DADADA"/>
<path d="M136.826 222.97V222.748H137.657C138.211 222.748 138.571 222.693 138.71 222.554C138.848 222.416 138.904 222.083 138.904 221.529V207.538C138.904 206.984 138.848 206.652 138.71 206.513C138.571 206.375 138.239 206.319 137.657 206.319H136.826V206.098H142.81V206.375H141.979C141.425 206.375 141.065 206.43 140.926 206.569C140.788 206.707 140.732 207.04 140.732 207.594V221.529C140.732 222.083 140.788 222.416 140.926 222.554C141.065 222.693 141.425 222.748 141.979 222.748H142.81V222.97H136.826Z" fill="#DADADA"/>
<path d="M145.636 222.97V222.748H146.024C146.301 222.748 146.522 222.637 146.716 222.388C146.91 222.139 147.104 221.779 147.326 221.308L153.92 206.126H155.831V206.403C155.831 206.957 155.887 207.428 156.025 207.76L161.566 221.308C161.815 221.945 162.009 222.305 162.092 222.416C162.286 222.637 162.563 222.748 162.951 222.748H163.145V222.97H158.657V222.748H160.458V222.693C160.236 222.61 159.987 222.25 159.738 221.585L158.435 218.399H149.044L147.769 221.308C147.686 221.502 147.631 221.695 147.631 221.834C147.631 222.111 147.741 222.333 147.935 222.499C148.129 222.665 148.406 222.748 148.767 222.748H149.902V222.97H145.636ZM149.21 217.983H158.131L154.169 208.203C154.03 207.899 153.975 207.594 153.975 207.261H153.753C153.753 207.428 153.67 207.732 153.476 208.203L149.21 217.983Z" fill="#DADADA"/>
<path d="M60.3059 239.565H60.8323C61.1925 239.565 61.4418 239.51 61.5249 239.426C61.608 239.343 61.6634 239.122 61.6634 238.761V229.619C61.6634 229.259 61.608 229.037 61.5249 228.954C61.4418 228.871 61.2202 228.843 60.8323 228.843H60.3059V228.705H64.2122V228.871H63.6859C63.3257 228.871 63.0764 228.926 62.9933 229.009C62.9101 229.093 62.8547 229.314 62.8547 229.674V238.789C62.8547 239.149 62.9101 239.371 62.9933 239.454C63.0764 239.537 63.3257 239.593 63.6859 239.593H64.2122V239.731H60.3059V239.565Z" fill="#DADADA"/>
<path d="M66.0685 239.703V239.565H66.3178C66.7057 239.565 66.955 239.482 67.0658 239.343C67.1766 239.205 67.2598 238.9 67.2875 238.457L67.703 229.619C67.703 229.453 67.7307 229.342 67.7307 229.287C67.7307 229.093 67.6753 228.982 67.5922 228.899C67.5091 228.816 67.2875 228.788 66.9827 228.788H66.3732V228.705H68.6173L72.579 237.487C72.7175 237.82 72.8007 238.041 72.8007 238.152H72.8838C72.8838 238.013 72.9669 237.792 73.1054 237.487L77.0949 228.705H79.3943V228.843H78.8957C78.5632 228.843 78.3416 228.899 78.2307 229.009C78.1199 229.12 78.0645 229.287 78.0645 229.536C78.0645 229.591 78.0645 229.73 78.0922 229.951L78.397 238.512C78.4247 238.955 78.4801 239.26 78.5909 239.399C78.7017 239.537 78.9788 239.593 79.3666 239.593H79.6991V239.731H75.6265V239.593H76.1806C76.5685 239.593 76.8178 239.537 76.9563 239.454C77.0671 239.371 77.1503 239.205 77.1503 239.011C77.1503 238.983 77.1503 238.955 77.1503 238.872C77.1503 238.817 77.1503 238.761 77.1503 238.734L76.8455 230.672C76.8455 230.478 76.8178 230.256 76.8178 229.979H76.7347C76.7347 230.007 76.6516 230.201 76.4854 230.616L72.3574 239.787L72.302 239.897H72.2743L72.2189 239.787L68.1463 230.783C68.0355 230.533 67.9801 230.312 67.9801 230.145H67.9247C67.9247 230.312 67.9247 230.478 67.897 230.672L67.5091 238.706C67.5091 238.872 67.4814 238.983 67.4814 239.039C67.4814 239.232 67.5368 239.371 67.6753 239.454C67.7861 239.537 68.0632 239.565 68.451 239.565H69.0051V239.703H66.0685Z" fill="#DADADA"/>
<path d="M81.5276 239.703V239.565H82.054C82.4141 239.565 82.6358 239.51 82.7189 239.426C82.802 239.343 82.8574 239.122 82.8574 238.734V229.619C82.8574 229.259 82.802 229.037 82.7189 228.926C82.6358 228.843 82.4141 228.788 82.054 228.788H81.5276V228.705H85.3785C86.5421 228.705 87.4563 229.009 88.1767 229.619C88.8693 230.228 89.2294 231.06 89.2294 232.057C89.2294 233.054 88.8693 233.885 88.1767 234.495C87.4841 235.104 86.5421 235.409 85.3785 235.409H84.0487V238.734C84.0487 239.094 84.1041 239.316 84.1872 239.426C84.2703 239.51 84.5197 239.565 84.8798 239.565H85.2677V239.703H81.5276ZM83.7994 229.065C83.9656 229.287 84.0487 229.619 84.0487 230.007V235.16H84.9075C85.8772 235.16 86.6252 234.883 87.1239 234.356C87.6226 233.83 87.8719 233.054 87.8719 232.057C87.8719 231.06 87.6226 230.284 87.1239 229.758C86.6252 229.231 85.8772 228.954 84.9075 228.954H83.7717V229.065H83.7994Z" fill="#DADADA"/>
<path d="M91.3904 239.565H91.9168C92.2769 239.565 92.4986 239.51 92.5817 239.426C92.6648 239.343 92.7202 239.122 92.7202 238.734V229.619C92.7202 229.259 92.6648 229.037 92.5817 228.926C92.4986 228.843 92.2769 228.788 91.9168 228.788H91.3904V228.705H97.5131C97.7901 228.705 97.9841 228.76 98.0949 228.843H98.1226L98.0672 228.123H98.2057L98.4828 232.279H98.2057L98.1503 231.198C98.0949 230.395 97.901 229.813 97.5131 229.48C97.1252 229.148 96.5711 228.982 95.7954 228.982H93.6345V229.009C93.8561 229.231 93.9669 229.508 93.9669 229.813V233.83H94.5764C94.7703 233.83 94.9366 233.83 95.0751 233.802C95.2136 233.775 95.3521 233.747 95.5184 233.692C95.6846 233.636 95.7954 233.525 95.9062 233.415C95.9894 233.304 96.0725 233.137 96.1556 232.944C96.2387 232.75 96.2387 232.5 96.2387 232.223V231.697H96.3772V236.601H96.2387V235.742C96.2387 235.465 96.211 235.215 96.1556 235.021C96.1002 234.827 96.0171 234.661 95.9062 234.55C95.8231 234.44 95.6846 234.356 95.5184 234.273C95.3521 234.218 95.2136 234.163 95.0751 234.135C94.9366 234.107 94.7703 234.107 94.5764 234.107H93.9669V238.651C93.9669 238.955 93.8561 239.232 93.6345 239.454V239.482H96.682C97.43 239.482 97.9841 239.316 98.3442 239.011C98.7044 238.678 98.926 238.152 98.9537 237.432L99.0646 236.213H99.3139L99.0646 240.368H98.926L98.9814 239.648H98.9537C98.8706 239.731 98.6767 239.787 98.3997 239.787H91.3904V239.565Z" fill="#DADADA"/>
<path d="M101.336 239.565H101.863C102.223 239.565 102.445 239.51 102.528 239.426C102.611 239.343 102.666 239.122 102.666 238.734V229.619C102.666 229.259 102.611 229.037 102.528 228.926C102.445 228.843 102.223 228.788 101.863 228.788H101.336V228.705H105.326C106.545 228.705 107.542 229.009 108.29 229.647C109.038 230.284 109.398 231.087 109.398 232.112C109.398 233.027 109.094 233.802 108.484 234.412C107.875 235.021 107.099 235.354 106.157 235.465L105.852 235.492V235.575C106.212 235.603 106.517 235.714 106.822 235.936C107.127 236.13 107.376 236.379 107.542 236.628L108.318 237.847C108.346 237.903 108.401 237.986 108.484 238.124C108.567 238.263 108.623 238.374 108.678 238.429C108.733 238.512 108.789 238.595 108.872 238.706C108.955 238.817 109.038 238.928 109.094 238.983C109.149 239.039 109.232 239.122 109.315 239.205C109.398 239.288 109.481 239.343 109.565 239.371C109.648 239.399 109.731 239.426 109.814 239.426C109.952 239.426 110.119 239.371 110.257 239.232L110.59 238.928L110.673 239.039L110.34 239.343C109.897 239.731 109.454 239.925 109.066 239.925C108.872 239.925 108.706 239.897 108.539 239.814C108.373 239.731 108.207 239.62 108.041 239.426C107.875 239.232 107.764 239.094 107.653 238.955C107.542 238.817 107.431 238.623 107.265 238.374L106.185 236.711C105.908 236.268 105.658 235.991 105.464 235.797C105.27 235.631 104.993 235.548 104.689 235.548H104.522V235.271H105.215C106.157 235.271 106.85 234.994 107.348 234.467C107.847 233.941 108.069 233.165 108.069 232.14C108.069 231.115 107.819 230.339 107.348 229.813C106.85 229.287 106.157 229.009 105.215 229.009H103.608V229.037C103.774 229.203 103.857 229.48 103.857 229.841V238.817C103.857 239.177 103.913 239.399 103.996 239.482C104.079 239.565 104.328 239.62 104.689 239.62H105.575V239.759H101.336V239.565Z" fill="#DADADA"/>
<path d="M112.252 239.565H112.778C113.138 239.565 113.388 239.51 113.471 239.426C113.554 239.343 113.609 239.122 113.609 238.761V229.619C113.609 229.259 113.554 229.037 113.471 228.954C113.388 228.871 113.166 228.843 112.778 228.843H112.252V228.705H116.158V228.871H115.632C115.272 228.871 115.022 228.926 114.939 229.009C114.856 229.093 114.801 229.314 114.801 229.674V238.789C114.801 239.149 114.856 239.371 114.939 239.454C115.022 239.537 115.272 239.593 115.632 239.593H116.158V239.731H112.252V239.565Z" fill="#DADADA"/>
<path d="M118.014 239.703V239.565H118.264C118.43 239.565 118.596 239.482 118.707 239.316C118.818 239.149 118.956 238.928 119.095 238.595L123.389 228.677H124.636V228.871C124.636 229.231 124.691 229.536 124.774 229.758L128.404 238.623C128.57 239.039 128.681 239.288 128.736 239.343C128.847 239.482 129.041 239.565 129.29 239.565H129.401V239.703H126.464V239.565H127.628V239.537C127.489 239.482 127.323 239.26 127.157 238.817L126.298 236.739H120.231L119.4 238.623C119.344 238.761 119.317 238.872 119.317 238.955C119.317 239.122 119.372 239.288 119.51 239.399C119.649 239.51 119.815 239.565 120.037 239.565H120.785V239.703H118.014ZM120.342 236.462H126.187L123.583 230.062C123.5 229.868 123.445 229.647 123.445 229.453H123.306C123.306 229.564 123.251 229.758 123.112 230.062L120.342 236.462Z" fill="#DADADA"/>
<path d="M131.285 239.565H131.811C132.171 239.565 132.393 239.51 132.476 239.399C132.559 239.288 132.615 239.039 132.615 238.651V229.619C132.615 229.259 132.559 229.037 132.476 228.954C132.393 228.871 132.171 228.843 131.784 228.843H131.257V228.705H135.164V228.843H134.637C134.277 228.843 134.028 228.871 133.945 228.954C133.861 229.037 133.806 229.259 133.806 229.619V238.623C133.806 238.928 133.695 239.205 133.474 239.426V239.454H135.551C135.939 239.454 136.299 239.426 136.576 239.371C136.854 239.316 137.103 239.232 137.352 239.122C137.602 239.011 137.768 238.817 137.906 238.595C138.045 238.346 138.128 238.069 138.156 237.709L138.294 236.185H138.599L138.294 240.535L138.128 240.507L138.183 239.593H138.156C138.1 239.648 138.045 239.676 137.989 239.703C137.934 239.731 137.851 239.731 137.74 239.731H131.285V239.565Z" fill="#DADADA"/>
<path d="M100.007 0.00385957C139.513 -0.356299 176.942 24.5224 192.041 61.0092C219.829 126.78 171.429 199.837 100.007 199.864C28.5566 199.837 -19.8433 126.78 7.97209 61.0092C23.0711 24.5224 60.4999 -0.356299 100.007 0.00385957ZM100.007 0.00385957C37.9761 -0.190072 -9.0662 57.6016 3.7333 118.274C12.8204 163.461 53.9062 196.955 100.007 196.651C146.107 196.955 187.193 163.488 196.28 118.302C209.079 57.6016 162.037 -0.190072 100.007 0.00385957Z" fill="#DADADA"/>
<path d="M10.133 99.2138C9.68976 148.14 50.1384 189.586 99.3139 188.893C142.173 188.727 179.657 154.678 185.364 112.429C185.697 110.545 185.835 108.301 186.029 106.389C186.112 104.727 186.195 103.092 186.251 101.43L186.223 96.9974C186.943 108.772 185.17 120.74 181.125 131.877C169.157 165.705 135.385 190.5 99.3139 190.556C49.9998 191.608 7.99978 148.445 10.133 99.2138Z" fill="#DADADA"/>
</svg>
